<svg xmlns="http://www.w3.org/2000/svg" viewBox="0 0 1000 1000" width="1000" height="1000">
  <title>B = 1 : Circle / Blank / No fill</title>
  <path fill="#111111" fill-rule="nonzero" d="M500 63.2Q588.84 63.2 670.03 97.54Q748.43 130.7 808.86 191.14Q869.3 251.57 902.46 329.97Q936.8 411.16 936.8 500Q936.8 588.84 902.46 670.03Q869.3 748.43 808.86 808.86Q748.43 869.3 670.03 902.46Q588.84 936.8 500 936.8Q411.16 936.8 329.97 902.46Q251.57 869.3 191.14 808.86Q130.7 748.43 97.54 670.03Q63.2 588.84 63.2 500Q63.2 411.16 97.54 329.97Q130.7 251.57 191.14 191.14Q251.57 130.7 329.97 97.54Q411.16 63.2 500 63.2ZM500 131.2Q424.95 131.2 356.46 160.17Q290.28 188.16 239.22 239.22Q188.16 290.28 160.17 356.46Q131.2 424.95 131.2 500Q131.2 575.05 160.17 643.54Q188.16 709.72 239.22 760.78Q290.28 811.84 356.46 839.83Q424.95 868.8 500 868.8Q575.05 868.8 643.54 839.83Q709.72 811.84 760.78 760.78Q811.84 709.72 839.83 643.54Q868.8 575.05 868.8 500Q868.8 424.95 839.83 356.46Q811.84 290.28 760.78 239.22Q709.72 188.16 643.54 160.17Q575.05 131.2 500 131.2Z"/>
</svg>
