<svg xmlns="http://www.w3.org/2000/svg" viewBox="0 0 1000 1000" width="1000" height="1000">
  <title>M = 12 : Mushroom / Blank / No fill</title>
  <path fill="#111111" fill-rule="nonzero" d="M500 139.41Q584.25 139.41 661.4 164.54Q736.53 189.01 794.82 233.9Q854.1 279.55 886.94 339.35Q921.6 402.45 921.6 471.9Q921.6 475.25 920.95 478.54Q920.29 481.82 919.01 484.91Q917.73 488.01 915.87 490.79Q914.01 493.58 911.64 495.94Q909.27 498.31 906.49 500.17Q903.7 502.03 900.61 503.32Q897.52 504.6 894.23 505.25Q890.95 505.9 887.6 505.9H643.15V777.08Q643.15 798.93 634.69 818.94Q626.53 838.24 611.66 853.1Q596.8 867.97 577.5 876.13Q557.49 884.59 535.64 884.59H464.36Q442.51 884.59 422.5 876.13Q403.2 867.97 388.34 853.1Q373.47 838.24 365.31 818.94Q356.85 798.93 356.85 777.08V505.9H112.4Q109.05 505.9 105.77 505.25Q102.48 504.6 99.39 503.32Q96.29 502.03 93.51 500.17Q90.73 498.31 88.36 495.95Q85.99 493.58 84.13 490.79Q82.27 488.01 80.99 484.91Q79.71 481.82 79.05 478.54Q78.4 475.25 78.4 471.9Q78.4 402.45 113.06 339.35Q145.9 279.55 205.18 233.9Q263.47 189.01 338.6 164.54Q415.75 139.41 500 139.41ZM500 207.41Q426.54 207.41 359.66 229.19Q295.67 250.03 246.67 287.77Q198.66 324.75 172.66 372.08Q155.1 404.06 149.28 437.9H392.51Q396.14 437.9 399.68 438.67Q402.96 439.38 406.03 440.71Q409.1 442.04 411.86 443.95Q414.61 445.85 416.94 448.26Q419.27 450.66 421.08 453.48Q422.9 456.29 424.13 459.41Q425.36 462.52 425.96 465.82Q426.56 469.11 426.5 472.46Q426.45 475.81 425.74 479.08Q424.85 483.21 424.85 487.5V777.08Q424.85 793.45 436.42 805.02Q447.99 816.59 464.36 816.59H535.64Q552.01 816.59 563.58 805.02Q575.15 793.45 575.15 777.08V487.5Q575.15 483.21 574.26 479.08Q573.49 475.53 573.49 471.9Q573.49 468.55 574.15 465.27Q574.8 461.99 576.08 458.89Q577.36 455.8 579.22 453.01Q581.09 450.23 583.45 447.86Q585.82 445.49 588.61 443.63Q591.39 441.77 594.48 440.49Q597.58 439.21 600.86 438.56Q604.15 437.9 607.49 437.9H850.72Q844.9 404.06 827.34 372.08Q801.34 324.75 753.33 287.77Q704.33 250.03 640.34 229.19Q573.46 207.41 500 207.41Z"/>
</svg>
