<svg xmlns="http://www.w3.org/2000/svg" viewBox="0 0 1000 1000" width="1000" height="1000">
  <title>i = 34 : Triangle / Blue / Dots</title>
  <path fill="#1B4FD8" fill-rule="nonzero" d="M529.8 110.03 940.2 857.23Q941.81 860.16 942.82 863.36Q943.83 866.55 944.2 869.88Q944.56 873.21 944.27 876.54Q943.98 879.88 943.05 883.1Q942.11 886.31 940.57 889.28Q939.02 892.25 936.93 894.87Q934.83 897.48 932.27 899.63Q929.7 901.79 926.77 903.4Q919.12 907.6 910.4 907.6H89.6Q86.25 907.6 82.97 906.94Q79.68 906.29 76.59 905.01Q73.49 903.73 70.71 901.87Q67.93 900.01 65.56 897.64Q63.19 895.27 61.33 892.49Q59.47 889.7 58.19 886.61Q56.91 883.52 56.25 880.23Q55.6 876.95 55.6 873.6Q55.6 864.88 59.8 857.23L470.2 110.03Q471.81 107.1 473.97 104.53Q476.12 101.97 478.73 99.88Q481.34 97.78 484.32 96.24Q487.29 94.69 490.5 93.76Q493.72 92.82 497.05 92.53Q500.39 92.24 503.72 92.61Q507.05 92.97 510.24 93.98Q513.43 94.99 516.37 96.6Q525.04 101.36 529.8 110.03ZM500 197.03 147.07 839.6H852.93ZM421 570.83C457.45 570.83 487 600.38 487 636.83C487 673.28 457.45 702.83 421 702.83C384.55 702.83 355 673.28 355 636.83C355 600.38 384.55 570.83 421 570.83ZM579 570.83C615.45 570.83 645 600.38 645 636.83C645 673.28 615.45 702.83 579 702.83C542.55 702.83 513 673.28 513 636.83C513 600.38 542.55 570.83 579 570.83ZM500 434C536.45 434 566 463.55 566 500C566 536.45 536.45 566 500 566C463.55 566 434 536.45 434 500C434 463.55 463.55 434 500 434ZM342 707.66C378.45 707.66 408 737.21 408 773.66C408 791.52 400.91 807.72 389.39 819.6H294.61C283.09 807.72 276 791.52 276 773.66C276 737.21 305.55 707.66 342 707.66ZM500 707.66C536.45 707.66 566 737.21 566 773.66C566 791.52 558.91 807.72 547.39 819.6H452.61C441.09 807.72 434 791.52 434 773.66C434 737.21 463.55 707.66 500 707.66ZM658 707.66C694.45 707.66 724 737.21 724 773.66C724 791.52 716.91 807.72 705.39 819.6H610.61C599.09 807.72 592 791.52 592 773.66C592 737.21 621.55 707.66 658 707.66ZM397.65 424.92 460.58 310.35C476.62 322.39 487 341.57 487 363.17C487 399.62 457.45 429.17 421 429.17C412.78 429.17 404.91 427.66 397.65 424.92ZM539.42 310.35 602.35 424.92C595.09 427.66 587.22 429.17 579 429.17C542.55 429.17 513 399.62 513 363.17C513 341.57 523.38 322.39 539.42 310.35ZM321.87 562.88 384.26 449.3C398.77 461.41 408 479.62 408 500C408 536.45 378.45 566 342 566C334.98 566 328.22 564.9 321.87 562.88ZM615.74 449.3 678.13 562.88C671.78 564.9 665.02 566 658 566C621.55 566 592 536.45 592 500C592 479.62 601.23 461.41 615.74 449.3ZM246.19 700.67 307.85 588.41C320.86 600.47 329 617.7 329 636.83C329 673.28 299.45 702.83 263 702.83C257.19 702.83 251.56 702.08 246.19 700.67ZM692.15 588.41 753.81 700.67C748.44 702.08 742.81 702.83 737 702.83C700.55 702.83 671 673.28 671 636.83C671 617.7 679.14 600.47 692.15 588.41Z"/>
</svg>
