<svg xmlns="http://www.w3.org/2000/svg" viewBox="0 0 1000 1000" width="1000" height="1000">
  <title>t = 45 : Flower / Blue / Dots</title>
  <path fill="#1B4FD8" fill-rule="nonzero" d="M500 80.89Q539.7 80.89 576.69 94.44Q612.43 107.53 641.89 131.86Q671.1 155.97 690.72 188.29Q703.06 208.63 710.73 230.76Q753.63 231.59 793.02 248.26Q833.05 265.18 863.89 296.03Q894.74 326.87 911.66 366.9Q929.2 408.36 929.2 453.7Q929.2 514.99 898.04 567.45Q875.43 605.51 840.95 631.49Q850.43 662.7 850.43 696.13Q850.43 741.47 832.89 782.93Q815.97 822.95 785.12 853.8Q754.28 884.64 714.26 901.57Q672.79 919.11 627.45 919.11Q584.78 919.11 545.39 903.51Q521.13 893.9 500 879.15Q478.87 893.9 454.61 903.51Q415.22 919.11 372.55 919.11Q327.21 919.11 285.74 901.57Q245.72 884.64 214.88 853.8Q184.03 822.95 167.11 782.93Q149.57 741.47 149.57 696.13Q149.57 662.7 159.05 631.49Q124.57 605.51 101.96 567.45Q70.8 514.99 70.8 453.7Q70.8 408.36 88.34 366.9Q105.26 326.87 136.11 296.03Q166.95 265.18 206.98 248.26Q246.37 231.59 289.27 230.76Q296.94 208.63 309.28 188.29Q328.9 155.97 358.11 131.86Q387.57 107.53 423.31 94.44Q460.3 80.89 500 80.89ZM500 148.89Q472.36 148.89 446.69 158.29Q421.89 167.38 401.4 184.29Q381.06 201.09 367.41 223.58Q353.5 246.49 348.15 272.68Q347.52 275.77 346.33 278.69Q345.15 281.61 343.44 284.26Q341.73 286.92 339.57 289.21Q337.41 291.51 334.86 293.36Q332.31 295.22 329.46 296.58Q326.61 297.93 323.57 298.74Q320.52 299.55 317.37 299.79Q314.23 300.02 311.09 299.67Q302.5 298.72 293.78 298.72Q262.23 298.72 233.47 310.88Q205.66 322.65 184.19 344.11Q162.73 365.58 150.97 393.39Q138.8 422.15 138.8 453.7Q138.8 496.32 160.42 532.72Q181.45 568.12 217.23 588.49Q219.97 590.05 222.38 592.09Q224.78 594.13 226.77 596.57Q228.76 599.02 230.27 601.79Q231.78 604.56 232.75 607.56Q233.72 610.56 234.12 613.69Q234.53 616.81 234.35 619.96Q234.17 623.11 233.42 626.17Q232.66 629.23 231.36 632.1Q217.57 662.46 217.57 696.13Q217.57 727.68 229.73 756.44Q241.49 784.25 262.96 805.71Q284.43 827.18 312.23 838.94Q341 851.11 372.55 851.11Q402.25 851.11 429.57 840.29Q455.98 829.83 477.06 810.57Q479.39 808.44 482.07 806.77Q484.76 805.11 487.7 803.97Q490.64 802.83 493.74 802.24Q496.84 801.66 500 801.66Q503.16 801.66 506.26 802.24Q509.36 802.83 512.3 803.97Q515.24 805.11 517.93 806.77Q520.61 808.44 522.94 810.57Q544.02 829.83 570.43 840.29Q597.75 851.11 627.45 851.11Q659 851.11 687.77 838.94Q715.57 827.18 737.04 805.71Q758.51 784.25 770.27 756.44Q782.43 727.68 782.43 696.13Q782.43 662.46 768.64 632.1Q767.34 629.23 766.58 626.17Q765.83 623.11 765.65 619.96Q765.47 616.81 765.88 613.69Q766.28 610.56 767.25 607.56Q768.22 604.56 769.73 601.79Q771.24 599.02 773.23 596.57Q775.22 594.13 777.62 592.09Q780.03 590.05 782.77 588.49Q818.55 568.12 839.58 532.72Q861.2 496.32 861.2 453.7Q861.2 422.15 849.03 393.39Q837.27 365.58 815.81 344.11Q794.34 322.65 766.53 310.88Q737.77 298.72 706.22 298.72Q697.5 298.72 688.91 299.67Q685.77 300.02 682.63 299.79Q679.48 299.55 676.43 298.74Q673.39 297.93 670.54 296.58Q667.69 295.22 665.14 293.36Q662.59 291.51 660.43 289.21Q658.27 286.92 656.56 284.26Q654.85 281.61 653.67 278.69Q652.48 275.77 651.85 272.68Q646.5 246.49 632.59 223.58Q618.94 201.09 598.6 184.29Q578.11 167.38 553.31 158.29Q527.64 148.89 500 148.89ZM421 570.83C457.45 570.83 487 600.38 487 636.83C487 673.28 457.45 702.83 421 702.83C384.55 702.83 355 673.28 355 636.83C355 600.38 384.55 570.83 421 570.83ZM579 570.83C615.45 570.83 645 600.38 645 636.83C645 673.28 615.45 702.83 579 702.83C542.55 702.83 513 673.28 513 636.83C513 600.38 542.55 570.83 579 570.83ZM342 434C378.45 434 408 463.55 408 500C408 536.45 378.45 566 342 566C305.55 566 276 536.45 276 500C276 463.55 305.55 434 342 434ZM500 434C536.45 434 566 463.55 566 500C566 536.45 536.45 566 500 566C463.55 566 434 536.45 434 500C434 463.55 463.55 434 500 434ZM658 434C694.45 434 724 463.55 724 500C724 536.45 694.45 566 658 566C621.55 566 592 536.45 592 500C592 463.55 621.55 434 658 434ZM421 297.17C457.45 297.17 487 326.72 487 363.17C487 399.62 457.45 429.17 421 429.17C384.55 429.17 355 399.62 355 363.17C355 326.72 384.55 297.17 421 297.17ZM579 297.17C615.45 297.17 645 326.72 645 363.17C645 399.62 615.45 429.17 579 429.17C542.55 429.17 513 399.62 513 363.17C513 326.72 542.55 297.17 579 297.17ZM500 168.89Q521.84 168.89 542.23 175.61C556.76 187.72 566 205.95 566 226.34C566 262.79 536.45 292.34 500 292.34C463.55 292.34 434 262.79 434 226.34C434 205.95 443.24 187.72 457.77 175.61Q478.16 168.89 500 168.89ZM658 707.66C694.45 707.66 724 737.21 724 773.66C724 780.56 722.94 787.2 720.98 793.45Q702.96 810.8 679.97 820.52Q654.95 831.11 627.45 831.11Q626.45 831.11 625.45 831.09C605.48 819.75 592 798.28 592 773.66C592 737.21 621.55 707.66 658 707.66ZM342 707.66C378.45 707.66 408 737.21 408 773.66C408 798.28 394.52 819.75 374.55 831.09Q373.55 831.11 372.55 831.11Q345.05 831.11 320.03 820.52Q297.04 810.8 279.02 793.45C277.06 787.2 276 780.56 276 773.66C276 737.21 305.55 707.66 342 707.66ZM197.1 359.51Q197.71 358.88 198.34 358.25Q217.04 339.55 241.26 329.31Q266.28 318.72 293.78 318.72Q301.39 318.72 308.89 319.55Q310.84 319.77 312.79 319.84C322.89 331.43 329 346.59 329 363.17C329 399.62 299.45 429.17 263 429.17C226.55 429.17 197 399.62 197 363.17C197 361.94 197.03 360.72 197.1 359.51ZM687.21 319.84Q689.16 319.77 691.11 319.55Q698.61 318.72 706.22 318.72Q733.72 318.72 758.74 329.31Q782.96 339.55 801.66 358.25Q802.29 358.88 802.9 359.51C802.97 360.72 803 361.94 803 363.17C803 399.62 773.45 429.17 737 429.17C700.55 429.17 671 399.62 671 363.17C671 346.59 677.11 331.43 687.21 319.84ZM500 707.66C536.45 707.66 566 737.21 566 773.66C566 787.13 561.97 799.65 555.04 810.09Q545.21 803.83 536.43 795.8Q532.73 792.42 528.47 789.78Q524.21 787.14 519.54 785.32Q514.87 783.51 509.94 782.59Q505.01 781.66 500 781.66Q494.99 781.66 490.06 782.59Q485.13 783.51 480.46 785.32Q475.79 787.14 471.53 789.78Q467.27 792.42 463.57 795.8Q454.79 803.83 444.96 810.09C438.03 799.65 434 787.13 434 773.66C434 737.21 463.55 707.66 500 707.66ZM263 570.83C299.45 570.83 329 600.38 329 636.83C329 673.28 299.45 702.83 263 702.83C253.99 702.83 245.4 701.03 237.58 697.76Q237.57 696.94 237.57 696.13Q237.57 666.79 249.57 640.38Q251.64 635.82 252.84 630.95Q254.04 626.09 254.32 621.09Q254.6 616.09 253.96 611.12Q253.32 606.16 251.78 601.39Q250.23 596.63 247.84 592.23Q245.44 587.83 242.28 583.95Q239.15 580.1 235.36 576.88C243.77 573 253.13 570.83 263 570.83ZM737 570.83C746.87 570.83 756.23 573 764.64 576.88Q760.85 580.1 757.72 583.95Q754.56 587.83 752.16 592.23Q749.77 596.63 748.22 601.39Q746.68 606.16 746.04 611.13Q745.4 616.09 745.68 621.09Q745.96 626.09 747.16 630.95Q748.36 635.82 750.43 640.38Q762.43 666.79 762.43 696.13Q762.43 696.94 762.42 697.76C754.6 701.03 746.01 702.83 737 702.83C700.55 702.83 671 673.28 671 636.83C671 600.38 700.55 570.83 737 570.83ZM184 434C220.45 434 250 463.55 250 500C250 526.88 233.93 550.01 210.87 560.3Q190.88 544.83 177.62 522.5Q158.8 490.83 158.8 453.7Q158.8 446.08 159.61 438.65C167.16 435.65 175.39 434 184 434ZM816 434C824.61 434 832.84 435.65 840.39 438.65Q841.2 446.08 841.2 453.7Q841.2 490.83 822.38 522.5Q809.12 544.83 789.13 560.3C766.07 550.01 750 526.88 750 500C750 463.55 779.55 434 816 434Z"/>
</svg>
