<svg xmlns="http://www.w3.org/2000/svg" viewBox="0 0 1000 1000" width="1000" height="1000">
  <title>s = 44 : Mushroom / Blue / Dots</title>
  <path fill="#1B4FD8" fill-rule="nonzero" d="M500 139.41Q584.25 139.41 661.4 164.54Q736.53 189.01 794.82 233.9Q854.1 279.55 886.94 339.35Q921.6 402.45 921.6 471.9Q921.6 475.25 920.95 478.54Q920.29 481.82 919.01 484.91Q917.73 488.01 915.87 490.79Q914.01 493.58 911.64 495.94Q909.27 498.31 906.49 500.17Q903.7 502.03 900.61 503.32Q897.52 504.6 894.23 505.25Q890.95 505.9 887.6 505.9H643.15V777.08Q643.15 798.93 634.69 818.94Q626.53 838.24 611.66 853.1Q596.8 867.97 577.5 876.13Q557.49 884.59 535.64 884.59H464.36Q442.51 884.59 422.5 876.13Q403.2 867.97 388.34 853.1Q373.47 838.24 365.31 818.94Q356.85 798.93 356.85 777.08V505.9H112.4Q109.05 505.9 105.77 505.25Q102.48 504.6 99.39 503.32Q96.29 502.03 93.51 500.17Q90.73 498.31 88.36 495.95Q85.99 493.58 84.13 490.79Q82.27 488.01 80.99 484.91Q79.71 481.82 79.05 478.54Q78.4 475.25 78.4 471.9Q78.4 402.45 113.06 339.35Q145.9 279.55 205.18 233.9Q263.47 189.01 338.6 164.54Q415.75 139.41 500 139.41ZM500 207.41Q426.54 207.41 359.66 229.19Q295.67 250.03 246.67 287.77Q198.66 324.75 172.66 372.08Q155.1 404.06 149.28 437.9H392.51Q396.14 437.9 399.68 438.67Q402.96 439.38 406.03 440.71Q409.1 442.04 411.86 443.95Q414.61 445.85 416.94 448.26Q419.27 450.66 421.08 453.48Q422.9 456.29 424.13 459.41Q425.36 462.52 425.96 465.82Q426.56 469.11 426.5 472.46Q426.45 475.81 425.74 479.08Q424.85 483.21 424.85 487.5V777.08Q424.85 793.45 436.42 805.02Q447.99 816.59 464.36 816.59H535.64Q552.01 816.59 563.58 805.02Q575.15 793.45 575.15 777.08V487.5Q575.15 483.21 574.26 479.08Q573.49 475.53 573.49 471.9Q573.49 468.55 574.15 465.27Q574.8 461.99 576.08 458.89Q577.36 455.8 579.22 453.01Q581.09 450.23 583.45 447.86Q585.82 445.49 588.61 443.63Q591.39 441.77 594.48 440.49Q597.58 439.21 600.86 438.56Q604.15 437.9 607.49 437.9H850.72Q844.9 404.06 827.34 372.08Q801.34 324.75 753.33 287.77Q704.33 250.03 640.34 229.19Q573.46 207.41 500 207.41ZM579 297.17C615.45 297.17 645 326.72 645 363.17C645 385.95 633.45 406.04 615.89 417.9H607.49Q602.18 417.9 596.96 418.94Q591.74 419.98 586.83 422.01Q581.92 424.05 577.49 427Q576.04 427.97 574.67 429.03C540.24 426.8 513 398.16 513 363.17C513 326.72 542.55 297.17 579 297.17ZM421 297.17C457.45 297.17 487 326.72 487 363.17C487 398.16 459.76 426.8 425.33 429.03Q424.31 428.24 423.24 427.5Q418.86 424.47 413.98 422.36Q409.1 420.24 403.91 419.12Q398.27 417.9 392.51 417.9H384.11C366.55 406.04 355 385.95 355 363.17C355 326.72 384.55 297.17 421 297.17ZM500 434C522.52 434 542.41 445.28 554.32 462.5Q553.49 467.16 553.49 471.9Q553.49 477.67 554.71 483.3Q555.15 485.34 555.15 487.5V536.27C543.35 554.18 523.06 566 500 566C476.94 566 456.65 554.18 444.85 536.27V487.5Q444.85 485.34 445.29 483.3Q446.41 478.11 446.5 472.79Q446.58 467.6 445.68 462.5C457.59 445.28 477.48 434 500 434ZM773.89 417.9H700.11C682.55 406.04 671 385.95 671 363.17C671 328.18 698.23 299.55 732.65 297.31Q736.95 300.4 741.13 303.62Q779.56 333.22 802.68 369.66C800.72 389.74 789.76 407.18 773.89 417.9ZM197.32 369.66Q220.44 333.22 258.87 303.62Q263.05 300.4 267.35 297.31C301.77 299.55 329 328.18 329 363.17C329 385.95 317.45 406.04 299.89 417.9H226.11C210.24 407.18 199.28 389.74 197.32 369.66ZM500 707.66C523.06 707.66 543.35 719.49 555.15 737.4V777.08Q555.15 785.16 549.44 790.88Q543.72 796.59 535.64 796.59H464.36Q456.28 796.59 450.56 790.88Q444.85 785.16 444.85 777.08V737.4C456.65 719.49 476.94 707.66 500 707.66ZM500 227.41Q533.61 227.41 565.75 232.16C562.8 265.88 534.49 292.34 500 292.34C465.51 292.34 437.2 265.88 434.25 232.16Q466.39 227.41 500 227.41Z"/>
</svg>
